# Tiled2Unity generated file. Do not modify by hand.
# Wavefront file for 'tryfinal_mesh_0004.obj'

# Vertices (Count = 180)
v -228 -36 0
v -230 -36 0
v -230 -35 0
v -228 -35 0
v -230 -36 0
v -232 -36 0
v -232 -35 0
v -230 -35 0
v -232 -36 0
v -234 -36 0
v -234 -35 0
v -232 -35 0
v -234 -36 0
v -236 -36 0
v -236 -35 0
v -234 -35 0
v -236 -36 0
v -238 -36 0
v -238 -35 0
v -236 -35 0
v -228 -37 0
v -230 -37 0
v -230 -36 0
v -228 -36 0
v -230 -37 0
v -232 -37 0
v -232 -36 0
v -230 -36 0
v -232 -37 0
v -234 -37 0
v -234 -36 0
v -232 -36 0
v -234 -37 0
v -236 -37 0
v -236 -36 0
v -234 -36 0
v -236 -37 0
v -238 -37 0
v -238 -36 0
v -236 -36 0
v -228 -38 0
v -230 -38 0
v -230 -37 0
v -228 -37 0
v -230 -38 0
v -232 -38 0
v -232 -37 0
v -230 -37 0
v -232 -38 0
v -234 -38 0
v -234 -37 0
v -232 -37 0
v -234 -38 0
v -236 -38 0
v -236 -37 0
v -234 -37 0
v -236 -38 0
v -238 -38 0
v -238 -37 0
v -236 -37 0
v -228 -39 0
v -230 -39 0
v -230 -38 0
v -228 -38 0
v -230 -39 0
v -232 -39 0
v -232 -38 0
v -230 -38 0
v -232 -39 0
v -234 -39 0
v -234 -38 0
v -232 -38 0
v -234 -39 0
v -236 -39 0
v -236 -38 0
v -234 -38 0
v -236 -39 0
v -238 -39 0
v -238 -38 0
v -236 -38 0
v -228 -40 0
v -230 -40 0
v -230 -39 0
v -228 -39 0
v -230 -40 0
v -232 -40 0
v -232 -39 0
v -230 -39 0
v -232 -40 0
v -234 -40 0
v -234 -39 0
v -232 -39 0
v -234 -40 0
v -236 -40 0
v -236 -39 0
v -234 -39 0
v -236 -40 0
v -238 -40 0
v -238 -39 0
v -236 -39 0
v -228 -41 0
v -230 -41 0
v -230 -40 0
v -228 -40 0
v -230 -41 0
v -232 -41 0
v -232 -40 0
v -230 -40 0
v -232 -41 0
v -234 -41 0
v -234 -40 0
v -232 -40 0
v -234 -41 0
v -236 -41 0
v -236 -40 0
v -234 -40 0
v -236 -41 0
v -238 -41 0
v -238 -40 0
v -236 -40 0
v -228 -42 0
v -230 -42 0
v -230 -41 0
v -228 -41 0
v -230 -42 0
v -232 -42 0
v -232 -41 0
v -230 -41 0
v -232 -42 0
v -234 -42 0
v -234 -41 0
v -232 -41 0
v -234 -42 0
v -236 -42 0
v -236 -41 0
v -234 -41 0
v -236 -42 0
v -238 -42 0
v -238 -41 0
v -236 -41 0
v -228 -43 0
v -230 -43 0
v -230 -42 0
v -228 -42 0
v -230 -43 0
v -232 -43 0
v -232 -42 0
v -230 -42 0
v -232 -43 0
v -234 -43 0
v -234 -42 0
v -232 -42 0
v -234 -43 0
v -236 -43 0
v -236 -42 0
v -234 -42 0
v -236 -43 0
v -238 -43 0
v -238 -42 0
v -236 -42 0
v -228 -44 0
v -230 -44 0
v -230 -43 0
v -228 -43 0
v -230 -44 0
v -232 -44 0
v -232 -43 0
v -230 -43 0
v -232 -44 0
v -234 -44 0
v -234 -43 0
v -232 -43 0
v -234 -44 0
v -236 -44 0
v -236 -43 0
v -234 -43 0
v -236 -44 0
v -238 -44 0
v -238 -43 0
v -236 -43 0

# Texture cooridinates (Count = 112)
vt 0.1855469 0.8232323
vt 0.1875 0.8232323
vt 0.1875 0.8249158
vt 0.1855469 0.8249158
vt 0.2753906 0.7272727
vt 0.2773438 0.7272727
vt 0.2773438 0.7289562
vt 0.2753906 0.7289562
vt 0.2792969 0.7272727
vt 0.28125 0.7272727
vt 0.28125 0.7289562
vt 0.2792969 0.7289562
vt 0.2832031 0.7272727
vt 0.2851563 0.7272727
vt 0.2851563 0.7289562
vt 0.2832031 0.7289562
vt 0.2871094 0.7272727
vt 0.2890625 0.7272727
vt 0.2890625 0.7289562
vt 0.2871094 0.7289562
vt 0.2753906 0.7222222
vt 0.2773438 0.7222222
vt 0.2773438 0.7239057
vt 0.2753906 0.7239057
vt 0.2792969 0.7222222
vt 0.28125 0.7222222
vt 0.28125 0.7239057
vt 0.2792969 0.7239057
vt 0.2832031 0.7222222
vt 0.2851563 0.7222222
vt 0.2851563 0.7239057
vt 0.2832031 0.7239057
vt 0.2871094 0.7222222
vt 0.2890625 0.7222222
vt 0.2890625 0.7239057
vt 0.2871094 0.7239057
vt 0.2753906 0.7171717
vt 0.2773438 0.7171717
vt 0.2773438 0.7188553
vt 0.2753906 0.7188553
vt 0.2792969 0.7171717
vt 0.28125 0.7171717
vt 0.28125 0.7188553
vt 0.2792969 0.7188553
vt 0.2832031 0.7171717
vt 0.2851563 0.7171717
vt 0.2851563 0.7188553
vt 0.2832031 0.7188553
vt 0.2871094 0.7171717
vt 0.2890625 0.7171717
vt 0.2890625 0.7188553
vt 0.2871094 0.7188553
vt 0.2753906 0.7121212
vt 0.2773438 0.7121212
vt 0.2773438 0.7138047
vt 0.2753906 0.7138047
vt 0.2792969 0.7121212
vt 0.28125 0.7121212
vt 0.28125 0.7138047
vt 0.2792969 0.7138047
vt 0.2832031 0.7121212
vt 0.2851563 0.7121212
vt 0.2851563 0.7138047
vt 0.2832031 0.7138047
vt 0.2871094 0.7121212
vt 0.2890625 0.7121212
vt 0.2890625 0.7138047
vt 0.2871094 0.7138047
vt 0.2753906 0.7070707
vt 0.2773438 0.7070707
vt 0.2773438 0.7087542
vt 0.2753906 0.7087542
vt 0.2792969 0.7070707
vt 0.28125 0.7070707
vt 0.28125 0.7087542
vt 0.2792969 0.7087542
vt 0.2832031 0.7070707
vt 0.2851563 0.7070707
vt 0.2851563 0.7087542
vt 0.2832031 0.7087542
vt 0.2871094 0.7070707
vt 0.2890625 0.7070707
vt 0.2890625 0.7087542
vt 0.2871094 0.7087542
vt 0.2753906 0.7020202
vt 0.2773438 0.7020202
vt 0.2773438 0.7037037
vt 0.2753906 0.7037037
vt 0.2792969 0.7020202
vt 0.28125 0.7020202
vt 0.28125 0.7037037
vt 0.2792969 0.7037037
vt 0.2832031 0.7020202
vt 0.2851563 0.7020202
vt 0.2851563 0.7037037
vt 0.2832031 0.7037037
vt 0.2871094 0.7020202
vt 0.2890625 0.7020202
vt 0.2890625 0.7037037
vt 0.2871094 0.7037037
vt 0.2753906 0.6969697
vt 0.2773438 0.6969697
vt 0.2773438 0.6986532
vt 0.2753906 0.6986532
vt 0.2832031 0.6969697
vt 0.2851563 0.6969697
vt 0.2851563 0.6986532
vt 0.2832031 0.6986532
vt 0.2871094 0.6969697
vt 0.2890625 0.6969697
vt 0.2890625 0.6986532
vt 0.2871094 0.6986532

# Normal
vn 0 0 -1

# Mesh description
g tryfinal_mesh_0004

# Faces
f 1/1/1 2/2/1 3/3/1 4/4/1
f 5/1/1 6/2/1 7/3/1 8/4/1
f 9/1/1 10/2/1 11/3/1 12/4/1
f 13/1/1 14/2/1 15/3/1 16/4/1
f 17/1/1 18/2/1 19/3/1 20/4/1
f 21/5/1 22/6/1 23/7/1 24/8/1
f 25/9/1 26/10/1 27/11/1 28/12/1
f 29/13/1 30/14/1 31/15/1 32/16/1
f 33/17/1 34/18/1 35/19/1 36/20/1
f 37/1/1 38/2/1 39/3/1 40/4/1
f 41/21/1 42/22/1 43/23/1 44/24/1
f 45/25/1 46/26/1 47/27/1 48/28/1
f 49/29/1 50/30/1 51/31/1 52/32/1
f 53/33/1 54/34/1 55/35/1 56/36/1
f 57/1/1 58/2/1 59/3/1 60/4/1
f 61/37/1 62/38/1 63/39/1 64/40/1
f 65/41/1 66/42/1 67/43/1 68/44/1
f 69/45/1 70/46/1 71/47/1 72/48/1
f 73/49/1 74/50/1 75/51/1 76/52/1
f 77/1/1 78/2/1 79/3/1 80/4/1
f 81/53/1 82/54/1 83/55/1 84/56/1
f 85/57/1 86/58/1 87/59/1 88/60/1
f 89/61/1 90/62/1 91/63/1 92/64/1
f 93/65/1 94/66/1 95/67/1 96/68/1
f 97/1/1 98/2/1 99/3/1 100/4/1
f 101/69/1 102/70/1 103/71/1 104/72/1
f 105/73/1 106/74/1 107/75/1 108/76/1
f 109/77/1 110/78/1 111/79/1 112/80/1
f 113/81/1 114/82/1 115/83/1 116/84/1
f 117/1/1 118/2/1 119/3/1 120/4/1
f 121/85/1 122/86/1 123/87/1 124/88/1
f 125/89/1 126/90/1 127/91/1 128/92/1
f 129/93/1 130/94/1 131/95/1 132/96/1
f 133/97/1 134/98/1 135/99/1 136/100/1
f 137/1/1 138/2/1 139/3/1 140/4/1
f 141/101/1 142/102/1 143/103/1 144/104/1
f 145/1/1 146/2/1 147/3/1 148/4/1
f 149/105/1 150/106/1 151/107/1 152/108/1
f 153/109/1 154/110/1 155/111/1 156/112/1
f 157/1/1 158/2/1 159/3/1 160/4/1
f 161/1/1 162/2/1 163/3/1 164/4/1
f 165/1/1 166/2/1 167/3/1 168/4/1
f 169/1/1 170/2/1 171/3/1 172/4/1
f 173/1/1 174/2/1 175/3/1 176/4/1
f 177/1/1 178/2/1 179/3/1 180/4/1

